G04 Layer: BottomPasteMaskLayer*
G04 EasyEDA v6.4.17, 2021-03-30T17:38:57--4:00*
G04 bfce05913f904539a0b1be1992e61c7c,10*
G04 Gerber Generator version 0.2*
G04 Scale: 100 percent, Rotated: No, Reflected: No *
G04 Dimensions in millimeters *
G04 leading zeros omitted , absolute positions ,4 integer and 5 decimal *
%FSLAX45Y45*%
%MOMM*%

%ADD21R,1.2000X5.0000*%
%ADD22R,5.0000X1.2000*%

%LPD*%
D21*
G01*
X-5244972Y-22500005D03*
G01*
X-5754979Y-22500005D03*
G01*
X-4255007Y-7800009D03*
G01*
X-3745001Y-7800009D03*
G01*
X-6255004Y-7800009D03*
G01*
X-5744997Y-7800009D03*
G36*
X6449999Y-16684985D02*
G01*
X6949998Y-16684985D01*
X6949998Y-16804985D01*
X6449999Y-16804985D01*
G37*
G36*
X6449999Y-17194992D02*
G01*
X6949998Y-17194992D01*
X6949998Y-17314992D01*
X6449999Y-17314992D01*
G37*
G36*
X6449999Y-14684984D02*
G01*
X6949998Y-14684984D01*
X6949998Y-14804984D01*
X6449999Y-14804984D01*
G37*
G36*
X6449999Y-15194991D02*
G01*
X6949998Y-15194991D01*
X6949998Y-15314990D01*
X6449999Y-15314990D01*
G37*
G36*
X6449999Y-12684983D02*
G01*
X6949998Y-12684983D01*
X6949998Y-12804983D01*
X6449999Y-12804983D01*
G37*
G36*
X6449999Y-13194990D02*
G01*
X6949998Y-13194990D01*
X6949998Y-13314989D01*
X6449999Y-13314989D01*
G37*
G36*
X6449999Y-10684984D02*
G01*
X6949998Y-10684984D01*
X6949998Y-10804984D01*
X6449999Y-10804984D01*
G37*
G36*
X6449999Y-11194991D02*
G01*
X6949998Y-11194991D01*
X6949998Y-11314991D01*
X6449999Y-11314991D01*
G37*
G01*
X-2255012Y-7800009D03*
G01*
X-1745005Y-7800009D03*
G01*
X-255015Y-7800111D03*
G01*
X254990Y-7800111D03*
G01*
X-3245104Y-22500107D03*
G01*
X-3755110Y-22500107D03*
G01*
X-1245107Y-22500107D03*
G01*
X-1755114Y-22500107D03*
G01*
X755014Y-22500005D03*
G01*
X245008Y-22500005D03*
D22*
G01*
X-12699923Y-19755027D03*
G01*
X-12699923Y-19245021D03*
G01*
X-12700000Y-17755133D03*
G01*
X-12700000Y-17245126D03*
G01*
X-12699923Y-15755035D03*
G01*
X-12699923Y-15245029D03*
G01*
X-12700000Y-13755141D03*
G01*
X-12700000Y-13245134D03*
M02*
