M48
METRIC,LZ,000.000
;FILE_FORMAT=3:3
;TYPE=PLATED
;Layer: Drill PTH
;EasyEDA v6.4.17, 2021-03-30T17:38:57--4:00
;bfce05913f904539a0b1be1992e61c7c,10
;Gerber Generator version 0.2
;Holesize 1 = 0.310 mm
T01C0.310
;Holesize 2 = 0.798 mm
T02C0.798
;Holesize 3 = 0.889 mm
T03C0.889
;Holesize 4 = 0.900 mm
T04C0.900
;Holesize 5 = 0.915 mm
T05C0.915
;Holesize 6 = 1.000 mm
T06C1.000
;Holesize 7 = 1.101 mm
T07C1.101
%
G05
G90
T01
X025961Y-130000
X025961Y-134191
X-083226Y-164993
X-028852Y-165006
X-027447Y-166561
X-101173Y-121095
X-028273Y-132370
X-028273Y-141773
X-085169Y-115390
X-066538Y-137279
X003805Y-141219
X-056149Y-132286
X-006965Y-098229
X-003807Y-138636
X-097198Y-141331
X-057856Y-137792
X-064033Y-142446
X009235Y-171986
X009235Y-144793
X-071504Y-143081
X-030480Y-168974
X-042873Y-151709
X-063619Y-143716
X-001367Y-140089
X003973Y-143601
X002146Y-170716
X-071062Y-142423
X-062746Y-170642
X-062746Y-161387
X-061427Y-169446
X-061427Y-157691
X-065872Y-142446
X-000660Y-118402
X-056792Y-118402
X-062108Y-141176
X006350Y-163096
X014143Y-133535
X014143Y-190978
X007209Y-136096
X-067005Y-138628
X-023000Y-134826
X005710Y-184114
X007788Y-132286
X003774Y-107709
X003774Y-139906
X-017663Y-161826
X-035446Y-165021
X-003919Y-099474
X000800Y-137366
X014638Y-123741
X008560Y-156774
X-028588Y-168176
X-029385Y-166294
X-067572Y-166294
X006335Y-160858
X006335Y-136096
X-095761Y-136258
X-062078Y-174061
X-071280Y-135768
X-030129Y-164366
X-034041Y-173373
X005085Y-164958
X-057521Y-118801
X-064044Y-139779
X-044115Y-161191
X-069169Y-084465
X-068095Y-130241
X004481Y-134826
X-048001Y-164366
X-026109Y-160736
X-004404Y-137333
X-031537Y-166606
X-044171Y-133556
X-021765Y-169446
X-021765Y-127559
T02
X-118111Y-091698
X-118111Y-098302
T03
X-115540Y-114000
X-113000Y-114000
X-110460Y-114000
X033541Y-080000
X031001Y-080000
X028461Y-080000
X033541Y-091999
X031001Y-091999
X028461Y-091999
X049540Y-091999
X047000Y-091999
X044460Y-091999
X049540Y-080000
X047000Y-080000
X044460Y-080000
T04
X-120905Y-098607
X-120905Y-091393
T05
X-078995Y-105160
X-081535Y-105160
X-084075Y-105160
X-086615Y-105160
X-089155Y-105160
X-091695Y-105160
X-094235Y-105160
X-096775Y-105160
X-099315Y-105160
X-101855Y-105160
X-104395Y-105160
X-106935Y-105160
X-109475Y-105160
X-112015Y-105160
X-114555Y-105160
X-117095Y-105160
X-078995Y-084840
X-081535Y-084840
X-084075Y-084840
X-086615Y-084840
X-089155Y-084840
X-091695Y-084840
X-094235Y-084840
X-096775Y-084840
X-099315Y-084840
X-101855Y-084840
X-104395Y-084840
X-106935Y-084840
X-116890Y-192460
X-116890Y-195000
X-116890Y-197540
X-099110Y-192460
X-099110Y-195000
X-099110Y-197540
X-116890Y-152460
X-116890Y-155000
X-116890Y-157540
X-099110Y-152460
X-099110Y-155000
X-099110Y-157540
X-057541Y-216891
X-055001Y-216891
X-052461Y-216891
X-057541Y-199111
X-055001Y-199111
X-052461Y-199111
X002540Y-088110
X000000Y-088110
X-002540Y-088110
X002540Y-105890
X000000Y-105890
X-002540Y-105890
X-116891Y-172461
X-116891Y-175001
X-116891Y-177541
X-099111Y-172461
X-099111Y-175001
X-099111Y-177541
X-037541Y-216891
X-035001Y-216891
X-032461Y-216891
X-037541Y-199111
X-035001Y-199111
X-032461Y-199111
X-017541Y-216891
X-015001Y-216891
X-012461Y-216891
X-017541Y-199111
X-015001Y-199111
X-012461Y-199111
X056891Y-172540
X056891Y-170000
X056891Y-167460
X039111Y-172540
X039111Y-170000
X039111Y-167460
X-017460Y-088110
X-020000Y-088110
X-022540Y-088110
X-017460Y-105890
X-020000Y-105890
X-022540Y-105890
X056891Y-112540
X056891Y-110000
X056891Y-107460
X039111Y-112540
X039111Y-110000
X039111Y-107460
X056891Y-152540
X056891Y-150000
X056891Y-147460
X039111Y-152540
X039111Y-150000
X039111Y-147460
X-116891Y-132461
X-116891Y-135001
X-116891Y-137541
X-099111Y-132461
X-099111Y-135001
X-099111Y-137541
X056891Y-132540
X056891Y-130000
X056891Y-127460
X039111Y-132540
X039111Y-130000
X039111Y-127460
X-057460Y-088110
X-060000Y-088110
X-062540Y-088110
X-057460Y-105890
X-060000Y-105890
X-062540Y-105890
X-037460Y-088110
X-040000Y-088110
X-042540Y-088110
X-037460Y-105890
X-040000Y-105890
X-042540Y-105890
X002461Y-216891
X005001Y-216891
X007541Y-216891
X002461Y-199111
X005001Y-199111
X007541Y-199111
X-120500Y-123000
X-123000Y-123000
X-107500Y-121000
X-105000Y-121000
T06
X-012460Y-115000
X-015000Y-115000
X-017540Y-115000
X-052460Y-115000
X-055000Y-115000
X-057540Y-115000
X-032460Y-115000
X-035000Y-115000
X-037540Y-115000
X-032460Y-186000
X-035000Y-186000
X-037540Y-186000
X007540Y-115000
X005000Y-115000
X002460Y-115000
X-087000Y-177540
X-087000Y-175000
X-087000Y-172460
X029000Y-177540
X029000Y-175000
X029000Y-172460
X-087000Y-137540
X-087000Y-135000
X-087000Y-132460
X008540Y-186000
X006000Y-186000
X003460Y-186000
X-052460Y-186000
X-055000Y-186000
X-057540Y-186000
X029000Y-137540
X029000Y-135000
X029000Y-132460
X-086999Y-197539
X-086999Y-194999
X-086999Y-192459
X-013460Y-186000
X-016000Y-186000
X-018540Y-186000
X029000Y-157540
X029000Y-155000
X029000Y-152460
X029000Y-117540
X029000Y-115000
X029000Y-112460
X-086999Y-157539
X-086999Y-154999
X-086999Y-152459
X-096250Y-114000
X-099750Y-114000
X013000Y-121150
X013000Y-110850
X-008000Y-121150
X-008000Y-110850
X-027000Y-110850
X-027000Y-121150
X-048000Y-110850
X-048000Y-121150
X022850Y-183000
X033150Y-183000
X033150Y-162000
X022850Y-162000
X022850Y-142000
X033150Y-142000
X033150Y-122000
X022850Y-122000
X-048000Y-188150
X-048000Y-177850
X-028000Y-188150
X-028000Y-177850
X-008000Y-177850
X-008000Y-188150
X013000Y-177850
X013000Y-188150
X-090149Y-187999
X-079849Y-187999
X-090150Y-167000
X-079850Y-167000
X-091149Y-146999
X-080849Y-146999
X-090150Y-129000
X-079850Y-129000
X-113151Y-125999
X-102851Y-125999
X008000Y-091850
X008000Y-102150
X-008000Y-091850
X-008000Y-102150
X-012000Y-091850
X-012000Y-102150
X-028000Y-090850
X-028000Y-101150
X-032000Y-090850
X-032000Y-101150
X-048000Y-090850
X-048000Y-101150
X-052000Y-090850
X-052000Y-101150
X-068000Y-090850
X-068000Y-101150
X052150Y-177000
X041850Y-177000
X052150Y-162000
X041850Y-162000
X052150Y-158000
X041850Y-158000
X052150Y-142000
X041850Y-142000
X052150Y-138000
X041850Y-138000
X051150Y-122000
X040850Y-122000
X051150Y-118000
X040850Y-118000
X052150Y-102000
X041850Y-102000
X-064000Y-212150
X-064000Y-201850
X-047000Y-212150
X-047000Y-201850
X-043000Y-212150
X-043000Y-201850
X-027000Y-211150
X-027000Y-200850
X-023000Y-211150
X-023000Y-200850
X-007000Y-211150
X-007000Y-200850
X-003000Y-211150
X-003000Y-200850
X013000Y-211150
X013000Y-200850
X-113150Y-203000
X-102850Y-203000
X-113150Y-187000
X-102850Y-187000
X-113150Y-183000
X-102850Y-183000
X-113150Y-167000
X-102850Y-167000
X-113150Y-163000
X-102850Y-163000
X-113150Y-148000
X-102850Y-148000
X-113151Y-144000
X-102851Y-144000
T07
X-123269Y-114000
X-120729Y-114000
M30
