G04 Layer: BottomSolderMaskLayer*
G04 EasyEDA v6.4.17, 2021-03-30T17:38:57--4:00*
G04 bfce05913f904539a0b1be1992e61c7c,10*
G04 Gerber Generator version 0.2*
G04 Scale: 100 percent, Rotated: No, Reflected: No *
G04 Dimensions in millimeters *
G04 leading zeros omitted , absolute positions ,4 integer and 5 decimal *
%FSLAX45Y45*%
%MOMM*%

%ADD38C,2.0032*%
%ADD46C,1.7018*%
%ADD51C,1.7272*%
%ADD53C,1.9032*%
%ADD54C,1.7780*%
%ADD56C,1.8032*%

%LPD*%
D38*
X-1245996Y-11500002D02*
G01*
X-1245996Y-11500002D01*
X-1499996Y-11500002D02*
G01*
X-1499996Y-11500002D01*
X-5245988Y-11500002D02*
G01*
X-5245988Y-11500002D01*
X-5499988Y-11500002D02*
G01*
X-5499988Y-11500002D01*
X-3245993Y-11500002D02*
G01*
X-3245993Y-11500002D01*
X-3499993Y-11500002D02*
G01*
X-3499993Y-11500002D01*
X-3245993Y-18599988D02*
G01*
X-3245993Y-18599988D01*
X-3499993Y-18599988D02*
G01*
X-3499993Y-18599988D01*
X753998Y-11500002D02*
G01*
X753998Y-11500002D01*
X499998Y-11500002D02*
G01*
X499998Y-11500002D01*
X-8700008Y-17753990D02*
G01*
X-8700008Y-17753990D01*
X-8700008Y-17499990D02*
G01*
X-8700008Y-17499990D01*
X2899994Y-17753990D02*
G01*
X2899994Y-17753990D01*
X2899994Y-17499990D02*
G01*
X2899994Y-17499990D01*
X-8700008Y-13753998D02*
G01*
X-8700008Y-13753998D01*
X-8700008Y-13499998D02*
G01*
X-8700008Y-13499998D01*
X853998Y-18599988D02*
G01*
X853998Y-18599988D01*
X599998Y-18599988D02*
G01*
X599998Y-18599988D01*
X-5245988Y-18599988D02*
G01*
X-5245988Y-18599988D01*
X-5499988Y-18599988D02*
G01*
X-5499988Y-18599988D01*
X2900019Y-13753998D02*
G01*
X2900019Y-13753998D01*
X2900019Y-13499998D02*
G01*
X2900019Y-13499998D01*
X-8699931Y-19753910D02*
G01*
X-8699931Y-19753910D01*
X-8699931Y-19499910D02*
G01*
X-8699931Y-19499910D01*
X-1345996Y-18599988D02*
G01*
X-1345996Y-18599988D01*
X-1599996Y-18599988D02*
G01*
X-1599996Y-18599988D01*
X2899994Y-15753994D02*
G01*
X2899994Y-15753994D01*
X2899994Y-15499994D02*
G01*
X2899994Y-15499994D01*
X2900019Y-11754002D02*
G01*
X2900019Y-11754002D01*
X2900019Y-11500002D02*
G01*
X2900019Y-11500002D01*
X-8699931Y-15753918D02*
G01*
X-8699931Y-15753918D01*
X-8699931Y-15499918D02*
G01*
X-8699931Y-15499918D01*
G36*
X-1854200Y-11600179D02*
G01*
X-1854200Y-11399774D01*
X-1653794Y-11399774D01*
X-1653794Y-11600179D01*
G37*
G36*
X-5854192Y-11600179D02*
G01*
X-5854192Y-11399774D01*
X-5653786Y-11399774D01*
X-5653786Y-11600179D01*
G37*
G36*
X-3854195Y-11600179D02*
G01*
X-3854195Y-11399774D01*
X-3653789Y-11399774D01*
X-3653789Y-11600179D01*
G37*
G36*
X-3854195Y-18700241D02*
G01*
X-3854195Y-18499836D01*
X-3653789Y-18499836D01*
X-3653789Y-18700241D01*
G37*
G36*
X145795Y-11600179D02*
G01*
X145795Y-11399774D01*
X346202Y-11399774D01*
X346202Y-11600179D01*
G37*
G36*
X-8800084Y-17346168D02*
G01*
X-8800084Y-17145761D01*
X-8599931Y-17145761D01*
X-8599931Y-17346168D01*
G37*
G36*
X-7984489Y-10601197D02*
G01*
X-7984489Y-10431018D01*
X-7814310Y-10431018D01*
X-7814310Y-10601197D01*
G37*
D46*
G01*
X-8153450Y-10516006D03*
G01*
X-8407450Y-10516006D03*
G01*
X-8661450Y-10516006D03*
G01*
X-8915450Y-10516006D03*
G01*
X-9169450Y-10516006D03*
G01*
X-9423450Y-10516006D03*
G01*
X-9677450Y-10516006D03*
G01*
X-9931450Y-10516006D03*
G01*
X-10185450Y-10516006D03*
G01*
X-10439450Y-10516006D03*
G01*
X-10693450Y-10516006D03*
G01*
X-10947450Y-10516006D03*
G01*
X-11201450Y-10516006D03*
G01*
X-11455450Y-10516006D03*
G01*
X-11709450Y-10516006D03*
G01*
X-7899450Y-8484006D03*
G01*
X-8153450Y-8484006D03*
G01*
X-8407450Y-8484006D03*
G01*
X-8661450Y-8484006D03*
G01*
X-8915450Y-8484006D03*
G01*
X-9169450Y-8484006D03*
G01*
X-9423450Y-8484006D03*
G01*
X-9677450Y-8484006D03*
G01*
X-9931450Y-8484006D03*
G01*
X-10185450Y-8484006D03*
G01*
X-10439450Y-8484006D03*
G36*
X-10778489Y-8569197D02*
G01*
X-10778489Y-8399018D01*
X-10608310Y-8399018D01*
X-10608310Y-8569197D01*
G37*
G36*
X-12225528Y-9995915D02*
G01*
X-12225528Y-9725660D01*
X-11955271Y-9725660D01*
X-11955271Y-9995915D01*
G37*
G36*
X-12225528Y-9274555D02*
G01*
X-12225528Y-9004300D01*
X-11955271Y-9004300D01*
X-11955271Y-9274555D01*
G37*
G36*
X-11881104Y-9251950D02*
G01*
X-11881104Y-9087612D01*
X-11740895Y-9087612D01*
X-11740895Y-9251950D01*
G37*
G36*
X-11881104Y-9912350D02*
G01*
X-11881104Y-9748012D01*
X-11740895Y-9748012D01*
X-11740895Y-9912350D01*
G37*
G36*
X-5315204Y-22760177D02*
G01*
X-5315204Y-22239731D01*
X-5174742Y-22239731D01*
X-5174742Y-22760177D01*
G37*
G36*
X-5825236Y-22760177D02*
G01*
X-5825236Y-22239731D01*
X-5684773Y-22239731D01*
X-5684773Y-22760177D01*
G37*
G36*
X-4325112Y-8060181D02*
G01*
X-4325112Y-7539736D01*
X-4184904Y-7539736D01*
X-4184904Y-8060181D01*
G37*
G36*
X-3815079Y-8060181D02*
G01*
X-3815079Y-7539736D01*
X-3674871Y-7539736D01*
X-3674871Y-8060181D01*
G37*
G36*
X-6325107Y-8060181D02*
G01*
X-6325107Y-7539736D01*
X-6184900Y-7539736D01*
X-6184900Y-8060181D01*
G37*
G36*
X-5815076Y-8060181D02*
G01*
X-5815076Y-7539736D01*
X-5674868Y-7539736D01*
X-5674868Y-8060181D01*
G37*
G36*
X6439915Y-16815054D02*
G01*
X6439915Y-16674845D01*
X6960108Y-16674845D01*
X6960108Y-16815054D01*
G37*
G36*
X6439915Y-17325086D02*
G01*
X6439915Y-17184877D01*
X6960108Y-17184877D01*
X6960108Y-17325086D01*
G37*
G36*
X6439915Y-14815057D02*
G01*
X6439915Y-14674850D01*
X6960108Y-14674850D01*
X6960108Y-14815057D01*
G37*
G36*
X6439915Y-15325089D02*
G01*
X6439915Y-15184881D01*
X6960108Y-15184881D01*
X6960108Y-15325089D01*
G37*
G36*
X6439915Y-12815062D02*
G01*
X6439915Y-12674854D01*
X6960108Y-12674854D01*
X6960108Y-12815062D01*
G37*
G36*
X6439915Y-13325094D02*
G01*
X6439915Y-13184886D01*
X6960108Y-13184886D01*
X6960108Y-13325094D01*
G37*
G36*
X6439915Y-10815065D02*
G01*
X6439915Y-10674858D01*
X6960108Y-10674858D01*
X6960108Y-10815065D01*
G37*
G36*
X6439915Y-11325097D02*
G01*
X6439915Y-11184889D01*
X6960108Y-11184889D01*
X6960108Y-11325097D01*
G37*
G36*
X-2325115Y-8060181D02*
G01*
X-2325115Y-7539736D01*
X-2184907Y-7539736D01*
X-2184907Y-8060181D01*
G37*
G36*
X-1815084Y-8060181D02*
G01*
X-1815084Y-7539736D01*
X-1674876Y-7539736D01*
X-1674876Y-8060181D01*
G37*
G36*
X2799841Y-17346168D02*
G01*
X2799841Y-17145761D01*
X3000247Y-17145761D01*
X3000247Y-17346168D01*
G37*
G36*
X-8800084Y-13346176D02*
G01*
X-8800084Y-13145770D01*
X-8599931Y-13145770D01*
X-8599931Y-13346176D01*
G37*
G36*
X245871Y-18700241D02*
G01*
X245871Y-18499836D01*
X446278Y-18499836D01*
X446278Y-18700241D01*
G37*
G36*
X-5854192Y-18700241D02*
G01*
X-5854192Y-18499836D01*
X-5653786Y-18499836D01*
X-5653786Y-18700241D01*
G37*
G36*
X2799841Y-13346176D02*
G01*
X2799841Y-13145770D01*
X3000247Y-13145770D01*
X3000247Y-13346176D01*
G37*
G36*
X-8800084Y-19346163D02*
G01*
X-8800084Y-19145758D01*
X-8599678Y-19145758D01*
X-8599678Y-19346163D01*
G37*
G36*
X-1954276Y-18700241D02*
G01*
X-1954276Y-18499836D01*
X-1753870Y-18499836D01*
X-1753870Y-18700241D01*
G37*
G36*
X2799841Y-15346171D02*
G01*
X2799841Y-15145766D01*
X3000247Y-15145766D01*
X3000247Y-15346171D01*
G37*
G36*
X2799841Y-11346179D02*
G01*
X2799841Y-11145774D01*
X3000247Y-11145774D01*
X3000247Y-11346179D01*
G37*
G36*
X-8800084Y-15346171D02*
G01*
X-8800084Y-15145766D01*
X-8599678Y-15145766D01*
X-8599678Y-15346171D01*
G37*
D51*
G01*
X-11689003Y-19246011D03*
G01*
X-11689003Y-19500011D03*
G01*
X-11689003Y-19754011D03*
G01*
X-9911003Y-19246011D03*
G01*
X-9911003Y-19500011D03*
G01*
X-9911003Y-19754011D03*
G01*
X-11689003Y-15245994D03*
G01*
X-11689003Y-15499994D03*
G01*
X-11689003Y-15753994D03*
G01*
X-9911003Y-15245994D03*
G01*
X-9911003Y-15499994D03*
G01*
X-9911003Y-15753994D03*
G01*
X-5754115Y-21689059D03*
G01*
X-5500115Y-21689059D03*
G01*
X-5246115Y-21689059D03*
G01*
X-5754115Y-19911059D03*
G01*
X-5500115Y-19911059D03*
G01*
X-5246115Y-19911059D03*
G01*
X254000Y-8811005D03*
G01*
X0Y-8811005D03*
G01*
X-254000Y-8811005D03*
G01*
X254000Y-10589005D03*
G01*
X0Y-10589005D03*
G01*
X-254000Y-10589005D03*
G01*
X-11689079Y-17246091D03*
G01*
X-11689079Y-17500091D03*
G01*
X-11689079Y-17754091D03*
G01*
X-9911079Y-17246091D03*
G01*
X-9911079Y-17500091D03*
G01*
X-9911079Y-17754091D03*
G01*
X-3754120Y-21689059D03*
G01*
X-3500120Y-21689059D03*
G01*
X-3246120Y-21689059D03*
G01*
X-3754120Y-19911059D03*
G01*
X-3500120Y-19911059D03*
G01*
X-3246120Y-19911059D03*
G01*
X-1754123Y-21689059D03*
G01*
X-1500123Y-21689059D03*
G01*
X-1246123Y-21689059D03*
G01*
X-1754123Y-19911059D03*
G01*
X-1500123Y-19911059D03*
G01*
X-1246123Y-19911059D03*
G01*
X5689091Y-17253966D03*
G01*
X5689091Y-16999966D03*
G01*
X5689091Y-16745966D03*
G01*
X3911091Y-17253966D03*
G01*
X3911091Y-16999966D03*
G01*
X3911091Y-16745966D03*
G01*
X-1745995Y-8811005D03*
G01*
X-1999995Y-8811005D03*
G01*
X-2253995Y-8811005D03*
G01*
X-1745995Y-10589005D03*
G01*
X-1999995Y-10589005D03*
G01*
X-2253995Y-10589005D03*
G01*
X5689091Y-11253978D03*
G01*
X5689091Y-10999978D03*
G01*
X5689091Y-10745978D03*
G01*
X3911091Y-11253978D03*
G01*
X3911091Y-10999978D03*
G01*
X3911091Y-10745978D03*
G01*
X5689091Y-15253970D03*
G01*
X5689091Y-14999970D03*
G01*
X5689091Y-14745970D03*
G01*
X3911091Y-15253970D03*
G01*
X3911091Y-14999970D03*
G01*
X3911091Y-14745970D03*
G01*
X-11689079Y-13246100D03*
G01*
X-11689079Y-13500100D03*
G01*
X-11689079Y-13754100D03*
G01*
X-9911079Y-13246100D03*
G01*
X-9911079Y-13500100D03*
G01*
X-9911079Y-13754100D03*
G01*
X5689091Y-13253974D03*
G01*
X5689091Y-12999974D03*
G01*
X5689091Y-12745974D03*
G01*
X3911091Y-13253974D03*
G01*
X3911091Y-12999974D03*
G01*
X3911091Y-12745974D03*
G01*
X-5745987Y-8811005D03*
G01*
X-5999987Y-8811005D03*
G01*
X-6253987Y-8811005D03*
G01*
X-5745987Y-10589005D03*
G01*
X-5999987Y-10589005D03*
G01*
X-6253987Y-10589005D03*
G01*
X-3745992Y-8811005D03*
G01*
X-3999992Y-8811005D03*
G01*
X-4253992Y-8811005D03*
G01*
X-3745992Y-10589005D03*
G01*
X-3999992Y-10589005D03*
G01*
X-4253992Y-10589005D03*
G01*
X246126Y-21689059D03*
G01*
X500126Y-21689059D03*
G01*
X754126Y-21689059D03*
G01*
X246126Y-19911059D03*
G01*
X500126Y-19911059D03*
G01*
X754126Y-19911059D03*
G36*
X-325120Y-8060181D02*
G01*
X-325120Y-7539989D01*
X-184912Y-7539989D01*
X-184912Y-8060181D01*
G37*
G36*
X184912Y-8060181D02*
G01*
X184912Y-7539989D01*
X325120Y-7539989D01*
X325120Y-8060181D01*
G37*
G36*
X-3315207Y-22760177D02*
G01*
X-3315207Y-22239986D01*
X-3175000Y-22239986D01*
X-3175000Y-22760177D01*
G37*
G36*
X-3825239Y-22760177D02*
G01*
X-3825239Y-22239986D01*
X-3685031Y-22239986D01*
X-3685031Y-22760177D01*
G37*
G36*
X-1315212Y-22760177D02*
G01*
X-1315212Y-22239986D01*
X-1175004Y-22239986D01*
X-1175004Y-22760177D01*
G37*
G36*
X-1825244Y-22760177D02*
G01*
X-1825244Y-22239986D01*
X-1685036Y-22239986D01*
X-1685036Y-22760177D01*
G37*
G36*
X684784Y-22760177D02*
G01*
X684784Y-22239731D01*
X825245Y-22239731D01*
X825245Y-22760177D01*
G37*
G36*
X174752Y-22760177D02*
G01*
X174752Y-22239731D01*
X315213Y-22239731D01*
X315213Y-22760177D01*
G37*
G36*
X-12960095Y-19825208D02*
G01*
X-12960095Y-19684745D01*
X-12439650Y-19684745D01*
X-12439650Y-19825208D01*
G37*
G36*
X-12960095Y-19315175D02*
G01*
X-12960095Y-19174968D01*
X-12439650Y-19174968D01*
X-12439650Y-19315175D01*
G37*
G36*
X-12960095Y-17825211D02*
G01*
X-12960095Y-17685004D01*
X-12439904Y-17685004D01*
X-12439904Y-17825211D01*
G37*
G36*
X-12960095Y-17315179D02*
G01*
X-12960095Y-17174972D01*
X-12439904Y-17174972D01*
X-12439904Y-17315179D01*
G37*
G36*
X-12960095Y-15825216D02*
G01*
X-12960095Y-15684754D01*
X-12439650Y-15684754D01*
X-12439650Y-15825216D01*
G37*
G36*
X-12960095Y-15315184D02*
G01*
X-12960095Y-15174976D01*
X-12439650Y-15174976D01*
X-12439650Y-15315184D01*
G37*
G36*
X-12960095Y-13825220D02*
G01*
X-12960095Y-13685012D01*
X-12439904Y-13685012D01*
X-12439904Y-13825220D01*
G37*
G36*
X-12960095Y-13315187D02*
G01*
X-12960095Y-13174979D01*
X-12439904Y-13174979D01*
X-12439904Y-13315187D01*
G37*
G01*
X-12050013Y-12300000D03*
G01*
X-12300000Y-12300000D03*
G01*
X-10749991Y-12100001D03*
G01*
X-10500004Y-12100001D03*
G36*
X-12422124Y-11488928D02*
G01*
X-12422124Y-11311128D01*
X-12231624Y-11311128D01*
X-12231624Y-11488928D01*
G37*
D53*
G01*
X-12072874Y-11400028D03*
D54*
G01*
X-11553952Y-11400028D03*
G01*
X-11299952Y-11400028D03*
G36*
X-11134852Y-11488928D02*
G01*
X-11134852Y-11311128D01*
X-10957052Y-11311128D01*
X-10957052Y-11488928D01*
G37*
G01*
X3354070Y-7999984D03*
G01*
X3100070Y-7999984D03*
G36*
X2757170Y-8088884D02*
G01*
X2757170Y-7911084D01*
X2934970Y-7911084D01*
X2934970Y-8088884D01*
G37*
G01*
X3354070Y-9199879D03*
G01*
X3100070Y-9199879D03*
G36*
X2757170Y-9288779D02*
G01*
X2757170Y-9110979D01*
X2934970Y-9110979D01*
X2934970Y-9288779D01*
G37*
G01*
X4954015Y-9199879D03*
G01*
X4700015Y-9199879D03*
G36*
X4357115Y-9288779D02*
G01*
X4357115Y-9110979D01*
X4534915Y-9110979D01*
X4534915Y-9288779D01*
G37*
G01*
X4954015Y-7999984D03*
G01*
X4700015Y-7999984D03*
G36*
X4357115Y-8088884D02*
G01*
X4357115Y-7911084D01*
X4534915Y-7911084D01*
X4534915Y-8088884D01*
G37*
D56*
G01*
X-9624999Y-11400002D03*
G01*
X-9975011Y-11400002D03*
D51*
G01*
X1299997Y-12115012D03*
G01*
X1299997Y-11084991D03*
G01*
X-799998Y-12115012D03*
G01*
X-799998Y-11084991D03*
G01*
X-2699994Y-11084991D03*
G01*
X-2699994Y-12115012D03*
G01*
X-4799990Y-11084991D03*
G01*
X-4799990Y-12115012D03*
G01*
X2284984Y-18300014D03*
G01*
X3315004Y-18300014D03*
G01*
X3315004Y-16199993D03*
G01*
X2284984Y-16199993D03*
G01*
X2284984Y-14199996D03*
G01*
X3315004Y-14199996D03*
G01*
X3315004Y-12200001D03*
G01*
X2284984Y-12200001D03*
G01*
X-4799990Y-18814999D03*
G01*
X-4799990Y-17785003D03*
G01*
X-2799994Y-18814999D03*
G01*
X-2799994Y-17785003D03*
G01*
X-799998Y-17785003D03*
G01*
X-799998Y-18814999D03*
G01*
X1299997Y-17785003D03*
G01*
X1299997Y-18814999D03*
G01*
X-9014942Y-18799911D03*
G01*
X-7984921Y-18799911D03*
G01*
X-9015018Y-16699992D03*
G01*
X-7984997Y-16699992D03*
G01*
X-9114942Y-14699919D03*
G01*
X-8084921Y-14699919D03*
G01*
X-9015018Y-12899999D03*
G01*
X-7984997Y-12899999D03*
G01*
X-11315090Y-12599924D03*
G01*
X-10285069Y-12599924D03*
G01*
X799998Y-9184995D03*
G01*
X799998Y-10215016D03*
G01*
X-799998Y-9184995D03*
G01*
X-799998Y-10215016D03*
G01*
X-1199997Y-9184995D03*
G01*
X-1199997Y-10215016D03*
G01*
X-2799994Y-9084995D03*
G01*
X-2799994Y-10115016D03*
G01*
X-3199993Y-9084995D03*
G01*
X-3199993Y-10115016D03*
G01*
X-4799990Y-9084995D03*
G01*
X-4799990Y-10115016D03*
G01*
X-5199989Y-9084995D03*
G01*
X-5199989Y-10115016D03*
G01*
X-6799986Y-9084995D03*
G01*
X-6799986Y-10115016D03*
G01*
X5215000Y-17699990D03*
G01*
X4184980Y-17699990D03*
G01*
X5215000Y-16199993D03*
G01*
X4184980Y-16199993D03*
G01*
X5215000Y-15799993D03*
G01*
X4184980Y-15799993D03*
G01*
X5215000Y-14199996D03*
G01*
X4184980Y-14199996D03*
G01*
X5215000Y-13799997D03*
G01*
X4184980Y-13799997D03*
G01*
X5115001Y-12200001D03*
G01*
X4084980Y-12200001D03*
G01*
X5115001Y-11800001D03*
G01*
X4084980Y-11800001D03*
G01*
X5215000Y-10200004D03*
G01*
X4184980Y-10200004D03*
G01*
X-6399987Y-21215019D03*
G01*
X-6399987Y-20184999D03*
G01*
X-4699990Y-21215019D03*
G01*
X-4699990Y-20184999D03*
G01*
X-4299991Y-21215019D03*
G01*
X-4299991Y-20184999D03*
G01*
X-2699994Y-21115020D03*
G01*
X-2699994Y-20084999D03*
G01*
X-2299995Y-21115020D03*
G01*
X-2299995Y-20084999D03*
G01*
X-699998Y-21115020D03*
G01*
X-699998Y-20084999D03*
G01*
X-299999Y-21115020D03*
G01*
X-299999Y-20084999D03*
G01*
X1299997Y-21115020D03*
G01*
X1299997Y-20084999D03*
G01*
X-11315014Y-20300010D03*
G01*
X-10284993Y-20300010D03*
G01*
X-11315014Y-18700013D03*
G01*
X-10284993Y-18700013D03*
G01*
X-11315014Y-18300014D03*
G01*
X-10284993Y-18300014D03*
G01*
X-11315014Y-16699992D03*
G01*
X-10284993Y-16699992D03*
G01*
X-11315014Y-16299992D03*
G01*
X-10284993Y-16299992D03*
G01*
X-11315014Y-14799995D03*
G01*
X-10284993Y-14799995D03*
G01*
X-11315090Y-14400021D03*
G01*
X-10285069Y-14400021D03*
M02*
